<?xml version="1.0" standalone="no"?>
<!DOCTYPE svg PUBLIC "-//W3C//DTD SVG 20010904//EN"
 "http://www.w3.org/TR/2001/REC-SVG-20010904/DTD/svg10.dtd">
<svg version="1.0" xmlns="http://www.w3.org/2000/svg"
 width="219.000000pt" height="197.000000pt" viewBox="0 0 219.000000 197.000000"
 preserveAspectRatio="xMidYMid meet">

<g transform="translate(0.000000,197.000000) scale(0.100000,-0.100000)"
fill="#2470dc" stroke="none">
<path d="M355 1843 c-46 -24 -66 -45 -86 -88 -16 -35 -19 -68 -19 -263 0 -275
10 -310 105 -353 35 -16 68 -19 265 -19 197 0 230 3 265 19 95 43 105 78 105
351 0 271 -10 304 -102 351 -33 17 -61 19 -270 19 -193 -1 -238 -4 -263 -17z"/>
<path d="M1355 1843 c-46 -24 -66 -45 -86 -88 -16 -35 -19 -68 -19 -263 0
-275 10 -310 105 -353 35 -16 68 -19 265 -19 197 0 230 3 265 19 95 43 105 78
105 351 0 271 -10 304 -102 351 -33 17 -61 19 -270 19 -193 -1 -238 -4 -263
-17z"/>
<path d="M355 843 c-46 -24 -66 -45 -86 -88 -16 -35 -19 -68 -19 -263 0 -275
10 -310 105 -353 35 -16 68 -19 265 -19 197 0 230 3 265 19 95 43 105 78 105
351 0 271 -10 304 -102 351 -33 17 -61 19 -270 19 -193 -1 -238 -4 -263 -17z"/>
<path d="M1355 843 c-46 -24 -66 -45 -86 -88 -16 -35 -19 -68 -19 -263 0 -275
10 -310 105 -353 35 -16 68 -19 265 -19 197 0 230 3 265 19 95 43 105 78 105
351 0 271 -10 304 -102 351 -33 17 -61 19 -270 19 -193 -1 -238 -4 -263 -17z"/>
</g>
</svg>
