<?xml version="1.0" standalone="no"?>
<!DOCTYPE svg PUBLIC "-//W3C//DTD SVG 20010904//EN"
 "http://www.w3.org/TR/2001/REC-SVG-20010904/DTD/svg10.dtd">
<svg version="1.0" xmlns="http://www.w3.org/2000/svg"
 width="742.000000pt" height="665.000000pt" viewBox="0 0 742.000000 665.000000"
 preserveAspectRatio="xMidYMid meet">

<g transform="translate(0.000000,665.000000) scale(0.100000,-0.100000)"
fill="#2470dc" stroke="none">
<path d="M790 6012 c-47 -23 -77 -72 -85 -135 -3 -29 -5 -1049 -3 -2267 l3
-2215 27 -97 c15 -53 44 -134 66 -180 136 -286 409 -476 744 -518 55 -7 954
-10 2668 -10 l2586 0 44 22 c54 27 85 72 94 132 13 87 -22 159 -97 199 l-42
22 -2620 5 -2620 5 -73 27 c-104 38 -175 83 -243 156 -99 105 -143 220 -159
411 -6 69 -10 969 -10 2226 l0 2111 -22 44 c-14 27 -36 50 -58 62 -46 24 -152
24 -200 0z"/>
<path d="M5672 5141 c-72 -25 -122 -67 -156 -134 -100 -195 59 -434 275 -414
99 9 194 82 241 186 30 65 22 180 -16 245 -66 113 -213 162 -344 117z"/>
<path d="M3014 4760 c-98 -20 -206 -96 -246 -175 -57 -110 6 -279 131 -353 40
-23 57 -27 126 -27 183 0 289 107 289 290 -1 177 -138 298 -300 265z"/>
<path d="M4097 3576 c-63 -23 -104 -62 -138 -132 -80 -162 -15 -333 151 -395
69 -26 165 -22 226 9 133 68 194 253 126 382 -59 115 -238 181 -365 136z"/>
<path d="M5319 2807 c-105 -29 -173 -90 -210 -187 -41 -108 -14 -203 77 -273
74 -56 144 -80 241 -81 75 -1 84 1 125 29 53 37 104 133 114 213 23 183 -169
348 -347 299z"/>
<path d="M2514 2786 c-130 -60 -193 -244 -128 -374 33 -67 109 -135 169 -152
66 -18 163 -8 230 25 92 45 136 125 138 250 2 170 -107 275 -286 275 -55 0
-84 -6 -123 -24z"/>
</g>
</svg>
