<?xml version="1.0" standalone="no"?>
<!DOCTYPE svg PUBLIC "-//W3C//DTD SVG 20010904//EN"
 "http://www.w3.org/TR/2001/REC-SVG-20010904/DTD/svg10.dtd">
<svg version="1.0" xmlns="http://www.w3.org/2000/svg"
 width="303.000000pt" height="258.000000pt" viewBox="0 0 303.000000 258.000000"
 preserveAspectRatio="xMidYMid meet">

<g transform="translate(0.000000,258.000000) scale(0.100000,-0.100000)"
fill="#2470dc" stroke="none">
<path d="M1475 2408 c-2 -7 -11 -67 -20 -133 -8 -66 -22 -163 -30 -215 -8 -52
-40 -273 -70 -490 -31 -217 -58 -396 -60 -398 -5 -5 -24 88 -45 223 -11 72
-44 274 -73 450 l-53 320 -72 3 c-67 3 -72 2 -76 -20 -3 -13 -17 -97 -30 -188
-14 -91 -36 -239 -50 -330 -14 -91 -28 -193 -32 -227 -6 -60 -16 -79 -26 -50
-3 6 -24 108 -48 225 l-44 212 -63 0 c-35 0 -63 -4 -63 -9 0 -23 -153 -377
-168 -389 -10 -8 -37 -12 -67 -10 l-50 2 0 -89 0 -90 121 -3 121 -3 29 71 c16
38 34 70 40 70 6 0 16 -26 22 -57 6 -32 23 -112 38 -178 14 -66 40 -190 58
-275 l31 -155 71 -3 71 -3 6 43 c4 24 22 149 41 278 19 129 40 269 46 310 22
150 30 153 49 20 7 -47 21 -132 31 -190 22 -124 54 -317 80 -485 11 -66 24
-144 30 -173 l12 -53 71 3 72 3 32 220 c33 227 65 450 108 759 13 98 28 188
32 200 7 22 24 -79 63 -364 27 -199 66 -475 84 -595 8 -55 18 -128 22 -162 l7
-63 73 0 c68 0 74 2 79 23 5 23 165 972 165 985 1 24 19 -32 25 -78 20 -162
94 -646 102 -667 4 -10 22 -13 71 -11 63 3 66 4 74 33 9 32 48 218 99 470 17
82 34 156 39 164 5 9 15 -3 33 -42 14 -30 28 -65 32 -76 6 -20 13 -21 131 -21
l125 0 -3 92 -3 92 -47 -3 c-61 -3 -83 10 -101 61 -9 24 -32 81 -52 128 -20
47 -48 116 -63 153 l-27 68 -60 -3 -60 -3 -8 -50 c-7 -45 -24 -125 -74 -338
-8 -37 -17 -66 -20 -64 -4 5 -33 190 -78 497 -15 102 -32 219 -38 260 l-12 75
-72 3 c-68 3 -73 2 -77 -20 -3 -13 -30 -176 -61 -363 -30 -187 -64 -390 -75
-451 -11 -61 -20 -121 -20 -132 0 -20 -20 -33 -20 -14 0 8 -40 291 -75 537
-14 94 -34 233 -45 310 -11 77 -28 194 -38 260 l-18 120 -72 3 c-52 2 -74 -1
-77 -10z"/>
</g>
</svg>
